<svg width="602" height="663" viewBox="0 0 602 663" fill="none" xmlns="http://www.w3.org/2000/svg">
<mask id="path-1-inside-1_12_2" fill="white">
<path fill-rule="evenodd" clip-rule="evenodd" d="M301 663C467.238 663 602 528.238 602 362C602 195.762 467.238 61 301 61C134.762 61 0 195.762 0 362C0 528.238 134.762 663 301 663ZM301 619C442.937 619 558 503.937 558 362C558 220.063 442.937 105 301 105C159.063 105 44 220.063 44 362C44 503.937 159.063 619 301 619Z"/>
</mask>
<path fill-rule="evenodd" clip-rule="evenodd" d="M301 663C467.238 663 602 528.238 602 362C602 195.762 467.238 61 301 61C134.762 61 0 195.762 0 362C0 528.238 134.762 663 301 663ZM301 619C442.937 619 558 503.937 558 362C558 220.063 442.937 105 301 105C159.063 105 44 220.063 44 362C44 503.937 159.063 619 301 619Z" fill="white"/>
<path d="M597 362C597 525.476 464.476 658 301 658V668C469.999 668 607 530.999 607 362H597ZM301 66C464.476 66 597 198.524 597 362H607C607 193.001 469.999 56 301 56V66ZM5 362C5 198.524 137.524 66 301 66V56C132.001 56 -5 193.001 -5 362H5ZM301 658C137.524 658 5 525.476 5 362H-5C-5 530.999 132.001 668 301 668V658ZM553 362C553 501.176 440.176 614 301 614V624C445.699 624 563 506.699 563 362H553ZM301 110C440.176 110 553 222.824 553 362H563C563 217.301 445.699 100 301 100V110ZM49 362C49 222.824 161.824 110 301 110V100C156.301 100 39 217.301 39 362H49ZM301 614C161.824 614 49 501.176 49 362H39C39 506.699 156.301 624 301 624V614Z" fill="black" mask="url(#path-1-inside-1_12_2)"/>
<path d="M542.961 10.4375C552.527 15.9603 555.805 28.1922 550.282 37.758L485.282 150.341L450.641 130.341L515.641 17.758C521.164 8.19216 533.396 4.91466 542.961 10.4375Z" fill="white"/>
<path d="M58.3205 10C67.8863 4.47715 80.1181 7.75466 85.641 17.3205L150.641 129.904L116 149.904L51 37.3205C45.4771 27.7547 48.7546 15.5228 58.3205 10Z" fill="white"/>
</svg>
