<svg width="269" height="58" viewBox="0 0 269 58" fill="none" xmlns="http://www.w3.org/2000/svg">
<path d="M33.3239 22.8693H26.9489C26.767 21.8239 26.4318 20.8977 25.9432 20.0909C25.4545 19.2727 24.8466 18.5795 24.1193 18.0114C23.392 17.4432 22.5625 17.017 21.6307 16.733C20.7102 16.4375 19.7159 16.2898 18.6477 16.2898C16.75 16.2898 15.0682 16.767 13.6023 17.7216C12.1364 18.6648 10.9886 20.0511 10.1591 21.8807C9.32955 23.6989 8.91477 25.9205 8.91477 28.5455C8.91477 31.2159 9.32955 33.4659 10.1591 35.2955C11 37.1136 12.1477 38.4886 13.6023 39.4205C15.0682 40.3409 16.7443 40.8011 18.6307 40.8011C19.6761 40.8011 20.6534 40.6648 21.5625 40.392C22.483 40.108 23.3068 39.6932 24.0341 39.1477C24.7727 38.6023 25.392 37.9318 25.892 37.1364C26.4034 36.3409 26.7557 35.4318 26.9489 34.4091L33.3239 34.4432C33.0852 36.1023 32.5682 37.6591 31.7727 39.1136C30.9886 40.5682 29.9602 41.8523 28.6875 42.9659C27.4148 44.0682 25.9261 44.9318 24.2216 45.5568C22.517 46.1705 20.625 46.4773 18.5455 46.4773C15.4773 46.4773 12.7386 45.767 10.3295 44.3466C7.92045 42.9261 6.02273 40.875 4.63636 38.1932C3.25 35.5114 2.55682 32.2955 2.55682 28.5455C2.55682 24.7841 3.25568 21.5682 4.65341 18.8977C6.05114 16.2159 7.95455 14.1648 10.3636 12.7443C12.7727 11.3239 15.5 10.6136 18.5455 10.6136C20.4886 10.6136 22.2955 10.8864 23.9659 11.4318C25.6364 11.9773 27.125 12.7784 28.4318 13.8352C29.7386 14.8807 30.8125 16.1648 31.6534 17.6875C32.5057 19.1989 33.0625 20.9261 33.3239 22.8693ZM45.0128 11.0909V46H38.8423V11.0909H45.0128ZM62.7784 46.5114C60.2216 46.5114 58.0057 45.9489 56.1307 44.8239C54.2557 43.6989 52.8011 42.125 51.767 40.1023C50.7443 38.0795 50.233 35.7159 50.233 33.0114C50.233 30.3068 50.7443 27.9375 51.767 25.9034C52.8011 23.8693 54.2557 22.2898 56.1307 21.1648C58.0057 20.0398 60.2216 19.4773 62.7784 19.4773C65.3352 19.4773 67.5511 20.0398 69.4261 21.1648C71.3011 22.2898 72.75 23.8693 73.7727 25.9034C74.8068 27.9375 75.3239 30.3068 75.3239 33.0114C75.3239 35.7159 74.8068 38.0795 73.7727 40.1023C72.75 42.125 71.3011 43.6989 69.4261 44.8239C67.5511 45.9489 65.3352 46.5114 62.7784 46.5114ZM62.8125 41.5682C64.1989 41.5682 65.358 41.1875 66.2898 40.4261C67.2216 39.6534 67.9148 38.6193 68.3693 37.3239C68.8352 36.0284 69.0682 34.5852 69.0682 32.9943C69.0682 31.392 68.8352 29.9432 68.3693 28.6477C67.9148 27.3409 67.2216 26.3011 66.2898 25.5284C65.358 24.7557 64.1989 24.3693 62.8125 24.3693C61.392 24.3693 60.2102 24.7557 59.267 25.5284C58.3352 26.3011 57.6364 27.3409 57.1705 28.6477C56.7159 29.9432 56.4886 31.392 56.4886 32.9943C56.4886 34.5852 56.7159 36.0284 57.1705 37.3239C57.6364 38.6193 58.3352 39.6534 59.267 40.4261C60.2102 41.1875 61.392 41.5682 62.8125 41.5682ZM91.9815 46.5114C89.3679 46.5114 87.1236 45.9375 85.2486 44.7898C83.3849 43.642 81.9474 42.0568 80.9361 40.0341C79.9361 38 79.4361 35.6591 79.4361 33.0114C79.4361 30.3523 79.9474 28.0057 80.9702 25.9716C81.9929 23.9261 83.4361 22.3352 85.2997 21.1989C87.1747 20.0511 89.3906 19.4773 91.9474 19.4773C94.0724 19.4773 95.9531 19.8693 97.5895 20.6534C99.2372 21.4261 100.55 22.5227 101.527 23.9432C102.504 25.3523 103.061 27 103.197 28.8864H97.2997C97.0611 27.625 96.4929 26.5739 95.5952 25.733C94.7088 24.8807 93.5213 24.4545 92.0327 24.4545C90.7713 24.4545 89.6634 24.7955 88.7088 25.4773C87.7543 26.1477 87.0099 27.1136 86.4759 28.375C85.9531 29.6364 85.6918 31.1477 85.6918 32.9091C85.6918 34.6932 85.9531 36.2273 86.4759 37.5114C86.9986 38.7841 87.7315 39.767 88.6747 40.4602C89.6293 41.142 90.7486 41.483 92.0327 41.483C92.9418 41.483 93.7543 41.3125 94.4702 40.9716C95.1974 40.6193 95.8054 40.1136 96.294 39.4545C96.7827 38.7955 97.1179 37.9943 97.2997 37.0511H103.197C103.05 38.9034 102.504 40.5455 101.561 41.9773C100.618 43.3977 99.3338 44.5114 97.7088 45.3182C96.0838 46.1136 94.1747 46.5114 91.9815 46.5114ZM108.264 46V19.8182H114.435V46H108.264ZM111.366 16.1023C110.389 16.1023 109.548 15.7784 108.844 15.1307C108.139 14.4716 107.787 13.6818 107.787 12.7614C107.787 11.8295 108.139 11.0398 108.844 10.392C109.548 9.73295 110.389 9.40341 111.366 9.40341C112.355 9.40341 113.196 9.73295 113.889 10.392C114.594 11.0398 114.946 11.8295 114.946 12.7614C114.946 13.6818 114.594 14.4716 113.889 15.1307C113.196 15.7784 112.355 16.1023 111.366 16.1023ZM120.78 46V19.8182H126.678V24.267H126.984C127.53 22.767 128.433 21.5966 129.695 20.7557C130.956 19.9034 132.462 19.4773 134.212 19.4773C135.984 19.4773 137.479 19.9091 138.695 20.7727C139.922 21.625 140.786 22.7898 141.286 24.267H141.558C142.138 22.8125 143.115 21.6534 144.49 20.7898C145.876 19.9148 147.518 19.4773 149.416 19.4773C151.825 19.4773 153.791 20.2386 155.314 21.7614C156.837 23.2841 157.598 25.5057 157.598 28.4261V46H151.411V29.3807C151.411 27.7557 150.979 26.5682 150.115 25.8182C149.251 25.0568 148.195 24.6761 146.945 24.6761C145.456 24.6761 144.291 25.142 143.45 26.0739C142.621 26.9943 142.206 28.1932 142.206 29.6705V46H136.155V29.125C136.155 27.7727 135.746 26.6932 134.928 25.8864C134.121 25.0795 133.064 24.6761 131.757 24.6761C130.871 24.6761 130.064 24.9034 129.337 25.358C128.609 25.8011 128.03 26.4318 127.598 27.25C127.166 28.0568 126.95 29 126.95 30.0795V46H120.78ZM175.449 46.5114C172.824 46.5114 170.557 45.9659 168.648 44.875C166.75 43.7727 165.29 42.2159 164.267 40.2045C163.244 38.1818 162.733 35.8011 162.733 33.0625C162.733 30.3693 163.244 28.0057 164.267 25.9716C165.301 23.9261 166.744 22.3352 168.597 21.1989C170.449 20.0511 172.625 19.4773 175.125 19.4773C176.739 19.4773 178.261 19.7386 179.693 20.2614C181.136 20.7727 182.409 21.5682 183.511 22.6477C184.625 23.7273 185.5 25.1023 186.136 26.7727C186.773 28.4318 187.091 30.4091 187.091 32.7045V34.5966H165.631V30.4375H181.176C181.165 29.2557 180.909 28.2045 180.409 27.2841C179.909 26.3523 179.21 25.6193 178.312 25.0852C177.426 24.5511 176.392 24.2841 175.21 24.2841C173.949 24.2841 172.841 24.5909 171.886 25.2045C170.932 25.8068 170.188 26.6023 169.653 27.5909C169.131 28.5682 168.864 29.642 168.852 30.8125V34.4432C168.852 35.9659 169.131 37.2727 169.688 38.3636C170.244 39.4432 171.023 40.2727 172.023 40.8523C173.023 41.4205 174.193 41.7045 175.534 41.7045C176.432 41.7045 177.244 41.5795 177.972 41.3295C178.699 41.0682 179.33 40.6875 179.864 40.1875C180.398 39.6875 180.801 39.0682 181.074 38.3295L186.835 38.9773C186.472 40.5 185.778 41.8295 184.756 42.9659C183.744 44.0909 182.449 44.9659 180.869 45.5909C179.29 46.2045 177.483 46.5114 175.449 46.5114ZM196.112 46.375C195.078 46.375 194.192 46.0114 193.453 45.2841C192.714 44.5568 192.351 43.6705 192.362 42.625C192.351 41.6023 192.714 40.7273 193.453 40C194.192 39.2727 195.078 38.9091 196.112 38.9091C197.112 38.9091 197.982 39.2727 198.72 40C199.47 40.7273 199.851 41.6023 199.862 42.625C199.851 43.3182 199.669 43.9489 199.317 44.517C198.976 45.0852 198.521 45.5398 197.953 45.8807C197.396 46.2102 196.783 46.375 196.112 46.375ZM206.233 46V19.8182H212.403V46H206.233ZM209.335 16.1023C208.358 16.1023 207.517 15.7784 206.812 15.1307C206.108 14.4716 205.756 13.6818 205.756 12.7614C205.756 11.8295 206.108 11.0398 206.812 10.392C207.517 9.73295 208.358 9.40341 209.335 9.40341C210.324 9.40341 211.165 9.73295 211.858 10.392C212.563 11.0398 212.915 11.8295 212.915 12.7614C212.915 13.6818 212.563 14.4716 211.858 15.1307C211.165 15.7784 210.324 16.1023 209.335 16.1023ZM230.169 46.5114C227.612 46.5114 225.396 45.9489 223.521 44.8239C221.646 43.6989 220.192 42.125 219.158 40.1023C218.135 38.0795 217.624 35.7159 217.624 33.0114C217.624 30.3068 218.135 27.9375 219.158 25.9034C220.192 23.8693 221.646 22.2898 223.521 21.1648C225.396 20.0398 227.612 19.4773 230.169 19.4773C232.726 19.4773 234.942 20.0398 236.817 21.1648C238.692 22.2898 240.141 23.8693 241.163 25.9034C242.197 27.9375 242.714 30.3068 242.714 33.0114C242.714 35.7159 242.197 38.0795 241.163 40.1023C240.141 42.125 238.692 43.6989 236.817 44.8239C234.942 45.9489 232.726 46.5114 230.169 46.5114ZM230.203 41.5682C231.589 41.5682 232.749 41.1875 233.68 40.4261C234.612 39.6534 235.305 38.6193 235.76 37.3239C236.226 36.0284 236.459 34.5852 236.459 32.9943C236.459 31.392 236.226 29.9432 235.76 28.6477C235.305 27.3409 234.612 26.3011 233.68 25.5284C232.749 24.7557 231.589 24.3693 230.203 24.3693C228.783 24.3693 227.601 24.7557 226.658 25.5284C225.726 26.3011 225.027 27.3409 224.561 28.6477C224.107 29.9432 223.879 31.392 223.879 32.9943C223.879 34.5852 224.107 36.0284 224.561 37.3239C225.027 38.6193 225.726 39.6534 226.658 40.4261C227.601 41.1875 228.783 41.5682 230.203 41.5682Z" fill="white"/>
<path d="M257 22C251.48 22 247 17.52 247 12C247 6.48 251.48 2 257 2C262.52 2 267 6.48 267 12C267 17.52 262.52 22 257 22Z" stroke="white" stroke-width="1.5" stroke-linecap="round" stroke-linejoin="round"/>
<path d="M259.88 15C259.151 15.6431 258.212 15.9986 257.24 16C255.03 16 253.24 14.21 253.24 12C253.24 9.79 255.03 8 257.24 8C258.212 8.0014 259.151 8.35689 259.88 9" stroke="white" stroke-width="1.5" stroke-linecap="round" stroke-linejoin="round"/>
</svg>
